<svg width="21" height="15" viewBox="0 0 21 15" fill="none" xmlns="http://www.w3.org/2000/svg">
<path d="M10.4757 4.2854C8.89954 4.2854 7.61865 5.56629 7.61865 7.14243C7.61865 8.71857 8.89954 9.99946 10.4757 9.99946C12.0518 9.99946 13.3327 8.71857 13.3327 7.14243C13.3327 5.56629 12.0518 4.2854 10.4757 4.2854Z" fill="#159822"/>
<path d="M10.4758 0C5.71406 0 1.64757 2.96176 0 7.14257C1.64757 11.3233 5.71406 14.2851 10.4758 14.2851C15.2422 14.2851 19.304 11.3233 20.9516 7.14257C19.304 2.96176 15.2422 0 10.4758 0ZM10.4758 11.9043C7.84732 11.9043 5.71406 9.77099 5.71406 7.14253C5.71406 4.51406 7.84732 2.38084 10.4758 2.38084C13.1043 2.38084 15.2375 4.5141 15.2375 7.14257C15.2375 9.77104 13.1043 11.9043 10.4758 11.9043Z" fill="#159822"/>
</svg>
