<svg width="21" height="19" viewBox="0 0 21 19" fill="none" xmlns="http://www.w3.org/2000/svg">
<path d="M10.3186 5.7284L13.3185 8.72828L13.3328 8.57114C13.3328 6.995 12.0519 5.71411 10.4757 5.71411L10.3186 5.7284Z" fill="#8A8A8A"/>
<path d="M10.4757 3.8098C13.1042 3.8098 15.2374 5.94306 15.2374 8.57153C15.2374 9.18579 15.1136 9.77148 14.8994 10.3095L17.685 13.0951C19.123 11.8952 20.2563 10.3429 20.9563 8.57153C19.304 4.39076 15.2422 1.42896 10.4757 1.42896C9.14244 1.42896 7.86633 1.66703 6.68066 2.09558L8.73772 4.14786C9.27574 3.93836 9.86143 3.8098 10.4757 3.8098Z" fill="#8A8A8A"/>
<path d="M0.952328 1.21424L3.12367 3.38558L3.557 3.81891C1.98563 5.04743 0.742827 6.68071 0 8.57108C1.64757 12.7519 5.71406 15.7137 10.4758 15.7137C11.9519 15.7137 13.3614 15.428 14.6518 14.9089L15.0566 15.3137L17.8327 18.0945L19.0469 16.885L2.16656 0L0.952328 1.21424ZM6.21881 6.47594L7.69018 7.94732C7.64733 8.15208 7.61876 8.35681 7.61876 8.57108C7.61876 10.1472 8.89964 11.4281 10.4758 11.4281C10.6901 11.4281 10.8948 11.3995 11.0948 11.3567L12.5662 12.8281C11.9329 13.1423 11.2282 13.3328 10.4758 13.3328C7.84732 13.3328 5.71406 11.1996 5.71406 8.57108C5.71406 7.81875 5.90454 7.114 6.21881 6.47594Z" fill="#8A8A8A"/>
</svg>
