<svg width="23" height="20" viewBox="0 0 23 20" fill="none" xmlns="http://www.w3.org/2000/svg">
<path d="M11.5243 6.26636C9.79778 6.26636 8.39465 7.66949 8.39465 9.39605C8.39465 11.1226 9.79778 12.5257 11.5243 12.5257C13.2509 12.5257 14.654 11.1226 14.654 9.39605C14.654 7.66949 13.2509 6.26636 11.5243 6.26636Z" fill="#159822"/>
<path d="M11.5244 1.57202C6.30821 1.57202 1.85363 4.81644 0.0488281 9.39625C1.85363 13.976 6.30821 17.2205 11.5244 17.2205C16.7457 17.2205 21.1951 13.976 22.9999 9.39625C21.1951 4.81644 16.7457 1.57202 11.5244 1.57202ZM11.5244 14.6124C8.64507 14.6124 6.30821 12.2755 6.30821 9.3962C6.30821 6.51689 8.64507 4.18008 11.5244 4.18008C14.4037 4.18008 16.7406 6.51694 16.7406 9.39625C16.7406 12.2756 14.4037 14.6124 11.5244 14.6124Z" fill="#159822"/>
</svg>
