<svg width="23" height="20" viewBox="0 0 23 20" fill="none" xmlns="http://www.w3.org/2000/svg">
<g clip-path="url(#clip0)">
<path d="M11.4196 6.27517L14.7057 9.56135L14.7214 9.38921C14.7214 7.66265 13.3183 6.25952 11.5917 6.25952L11.4196 6.27517Z" fill="#8A8A8A"/>
<path d="M11.5918 4.17349C14.4711 4.17349 16.808 6.51034 16.808 9.38966C16.808 10.0625 16.6723 10.7041 16.4376 11.2935L19.4891 14.345C21.0643 13.0305 22.3058 11.3301 23.0726 9.38966C21.2626 4.80989 16.8132 1.56543 11.5918 1.56543C10.1313 1.56543 8.73339 1.82622 7.43457 2.29567L9.68795 4.54382C10.2773 4.31433 10.9189 4.17349 11.5918 4.17349Z" fill="#8A8A8A"/>
<path d="M1.15943 1.33012L3.53799 3.70869L4.01268 4.18337C2.29135 5.52914 0.929931 7.3183 0.116211 9.38908C1.92102 13.9688 6.3756 17.2133 11.5918 17.2133C13.2088 17.2133 14.7528 16.9003 16.1664 16.3318L16.6097 16.7752L19.6508 19.8214L20.9809 18.4965L2.48955 0L1.15943 1.33012ZM6.92853 7.09399L8.54032 8.70578C8.49337 8.93009 8.46208 9.15435 8.46208 9.38908C8.46208 11.1156 9.8652 12.5188 11.5918 12.5188C11.8265 12.5188 12.0508 12.4875 12.2699 12.4405L13.8817 14.0523C13.1879 14.3966 12.416 14.6053 11.5918 14.6053C8.71245 14.6053 6.3756 12.2684 6.3756 9.38908C6.3756 8.56494 6.58426 7.79293 6.92853 7.09399Z" fill="#8A8A8A"/>
</g>
<defs>
<clipPath id="clip0">
<rect width="23" height="20" fill="white"/>
</clipPath>
</defs>
</svg>
